<svg xmlns="http://www.w3.org/2000/svg" viewBox="0 0 53.94775 9.97266"><defs><style>.cls-1{fill:#ef7f35;}.cls-2{fill:#5bb7e9;}</style></defs><title>Asset 11</title><g id="Layer_2" data-name="Layer 2"><g id="Layer_1-2" data-name="Layer 1"><path class="cls-1" d="M4.28369,8.0625H0V1.92773H3.42822a.76666.76666,0,0,1,.85547.87891ZM2.936,6.9082V3.35742q0-.21679-.1875-.21679H1.34229V6.9082Z"/><path class="cls-1" d="M6.88525,5.68359H5.5376V1.92773H6.88525Z"/><path class="cls-1" d="M12.62158,1.92773l-.5039,4.18946a2.919,2.919,0,0,1-.48047,1.48828,1.61627,1.61627,0,0,1-1.28907.457h-.29882V6.94922h.13476q.4922,0,.57422-.77344l.334-3.03515H8.145V1.92773ZM9.48682,9.97266H8.145V3.96094h1.3418Z"/><path class="cls-1" d="M18.1001,1.92773l-.38086,4.39454a2.15159,2.15159,0,0,1-.5625,1.43554,1.89747,1.89747,0,0,1-1.3125.39844h-.19336a1.90349,1.90349,0,0,1-1.32422-.39844,2.17248,2.17248,0,0,1-.54492-1.43554L13.395,1.92773Zm-1.48828,1.2129H14.8833l.24024,3.252a.52616.52616,0,0,0,.58007.55664h.09375a.52349.52349,0,0,0,.57422-.55664Z"/><path class="cls-1" d="M23.15088,5.98828A1.818,1.818,0,0,1,21.11182,8.0625h-2.1211V6.84961h.92578L18.979,1.92773h1.38868l.89062,4.96875q.53907,0,.53906-.7207v-4.248h1.35352Z"/><path class="cls-1" d="M27.604,1.92773l-.49218,4.18946a3.14983,3.14983,0,0,1-.43946,1.48828,1.43527,1.43527,0,0,1-1.20117.457h-.44531V6.94922h.15234q.4922,0,.58008-.77344l.334-3.03515H24.07666V0h1.3418V1.92773Z"/><path class="cls-2" d="M31.65283,5.68359H30.30518V1.92773h1.34765Z"/><path class="cls-2" d="M37.38916,1.92773l-.50391,4.18946a2.919,2.919,0,0,1-.48046,1.48828,1.61627,1.61627,0,0,1-1.28907.457h-.29883V6.94922h.13477q.4922,0,.57422-.77344l.334-3.03515H32.9126V1.92773ZM34.25439,9.97266H32.9126V3.96094h1.34179Z"/><path class="cls-2" d="M42.86768,1.92773l-.38086,4.39454a2.15159,2.15159,0,0,1-.5625,1.43554,1.89747,1.89747,0,0,1-1.3125.39844h-.19336a1.90349,1.90349,0,0,1-1.32422-.39844,2.17248,2.17248,0,0,1-.54492-1.43554L38.1626,1.92773Zm-1.48829,1.2129H39.65088l.24023,3.252a.52617.52617,0,0,0,.58008.55664h.09375a.52349.52349,0,0,0,.57422-.55664Z"/><path class="cls-2" d="M46.09619,8.0625H43.70557V6.84961h1.04882V3.35742q0-.21679-.19335-.21679h-.68555V1.92773h1.248a.87023.87023,0,0,1,.97265.9961Z"/><path class="cls-2" d="M48.70361,5.68359H47.356V1.92773h1.34765Z"/><path class="cls-2" d="M53.94775,7.18359a.76666.76666,0,0,1-.85546.87891H49.89893V6.84961h2.50781q.19335,0,.19336-.2168V3.3457q0-.2168-.19336-.21679h-1.1836v.9375q0,.21679.1875.21679h.52149V5.33789H50.63135a.79759.79759,0,0,1-.57422-.16113.85134.85134,0,0,1-.1582-.59473V1.92773h3.19336a.76666.76666,0,0,1,.85546.87891Z"/></g></g></svg>